<?xml version="1.0" encoding="utf-8"?>
<!-- Generator: Adobe Illustrator 21.1.0, SVG Export Plug-In . SVG Version: 6.00 Build 0)  -->
<svg version="1.1" id="Layer_1" xmlns="http://www.w3.org/2000/svg" xmlns:xlink="http://www.w3.org/1999/xlink" x="0px" y="0px" width="316" height="316" 
	 viewBox="0 0 113.4 113.4" enable-background="new 0 0 113.4 113.4" xml:space="preserve">
<g>
	<rect fill="#F9C217" width="113.4" height="113.4"/>
	<g>
		<circle cx="58.1" cy="43.4" r="37.3"/>
		<circle fill="#FFFFFF" cx="58.1" cy="43.4" r="31.5"/>
		<circle fill="none" cx="58.1" cy="43.4" r="27.7"/>
		<g>
			<path fill="#009444" d="M80.1,60.3L63.2,43.4l16.9-16.9c-1.5-1.9-3.2-3.6-5.1-5.1L58.1,38.3L41.2,21.4c-1.9,1.5-3.6,3.2-5.1,5.1
				L53,43.4L36.1,60.3c1.5,1.9,3.2,3.6,5.1,5.1l16.9-16.9L75,65.3C76.9,63.9,78.6,62.2,80.1,60.3z"/>
		</g>
		<g>
			<path d="M35.8,27c-3.4,4.6-5.4,10.3-5.4,16.4c0,6.1,2,11.8,5.4,16.4l8-16.4L35.8,27z"/>
			<path d="M80.4,27l-8,16.4l8,16.4c3.4-4.6,5.4-10.3,5.4-16.4C85.8,37.2,83.8,31.6,80.4,27z"/>
			<path fill="#2B3990" d="M41.7,65.7c4.6,3.4,10.3,5.4,16.4,5.4s11.8-2,16.4-5.4l-16.4-8L41.7,65.7z"/>
			<path fill="#BE1E2D" d="M74.5,21.1c-4.6-3.4-10.3-5.4-16.4-5.4s-11.8,2-16.4,5.4l16.4,8L74.5,21.1z"/>
		</g>
		<g>
			<path fill="#F9C217" d="M53,43.4L36.1,26.5c-0.1,0.2-0.2,0.3-0.4,0.5l8,16.4l-8,16.4l0,0c0.1,0.2,0.2,0.3,0.4,0.5l0,0L53,43.4z"
				/>
			<path fill="#F9C217" d="M72.4,43.4l8-16.4l0,0c-0.1-0.2-0.2-0.3-0.4-0.5l-0.3,0.3L63.2,43.4l16.9,16.9l0,0
				c0.1-0.2,0.2-0.3,0.4-0.5L72.4,43.4z"/>
			<path fill="#FFFFFF" d="M75,21.4c-0.2-0.1-0.3-0.2-0.5-0.4l-16.4,8l-16.4-8c-0.2,0.1-0.3,0.2-0.5,0.4l16.9,16.9L75,21.4z"/>
			<path fill="#FFFFFF" d="M58.1,48.5L41.2,65.3l0,0c0.2,0.1,0.3,0.2,0.5,0.4l0,0l16.4-8l16.4,8v0c0.2-0.1,0.3-0.2,0.5-0.4l0,0
				L58.1,48.5z"/>
		</g>
		<g>
			<path d="M33.4,106.3c-1.2,0.5-3.3,0.9-6.1,0.9c-6.2,0-10.7-3.4-11.2-9.1c-0.4-4.8,1.6-8.5,5-10.7c2.3-1.6,5.2-2.3,8.5-2.3
				c2.6,0,4.5,0.5,5.2,0.9l-1,3.7c-0.7-0.3-2.3-0.7-4.3-0.7s-3.9,0.6-5.2,1.6c-1.9,1.5-2.9,3.9-2.7,6.9c0.3,3.4,2.6,5.7,6.8,5.7
				c1.6,0,3.3-0.3,4.4-0.7L33.4,106.3z"/>
			<path d="M58.1,94.2c0.3,3.9-0.8,7.7-3.3,10.1c-2,1.9-4.9,3.1-8.4,3.1c-6.1,0-9.9-3.9-10.3-8.9c-0.3-3.9,0.9-7.7,3.5-10.1
				c2-1.9,4.9-3,8.3-3C54,85.2,57.6,89.1,58.1,94.2z M43.6,90.7c-1.7,1.7-2.5,5-2.3,7.6c0.3,3,2,5.3,5.4,5.3c1.5,0,2.8-0.6,3.8-1.6
				c1.7-1.7,2.4-5.2,2.2-7.7c-0.2-2.7-1.5-5.2-5.2-5.2C45.9,89.1,44.6,89.7,43.6,90.7z"/>
			<path d="M63.3,86c1.5-0.3,3.8-0.6,6.1-0.6c2.1,0,4.6,0.3,6.4,1.4c1.7,1,2.8,2.5,2.9,4.5c0.2,2.7-1,4.7-2.7,6
				c-1.8,1.4-4.5,2-7.3,2c-0.8,0-1.5-0.1-2.1-0.1l-0.9,7.7h-4.9L63.3,86z M67,95.5c0.5,0.1,1.1,0.2,1.9,0.2c3,0,4.9-1.8,4.7-3.9
				c-0.2-2.1-1.9-2.7-3.8-2.7c-0.9,0-1.6,0.1-2,0.2L67,95.5z"/>
			<path d="M95.3,97.9h-8.4l-0.6,5.2h9.4l-0.5,3.9H80.8l2.6-21.4h14l-0.5,3.9H88l-0.6,4.6h8.4L95.3,97.9z"/>
		</g>
	</g>
</g>
</svg>
