<?xml version="1.0" encoding="UTF-8"?>
<svg id="PF_logo" width="354.116524" height="282.392923" version="1.1" viewBox="0 0 944 753" xmlns="http://www.w3.org/2000/svg">
 <g id="g1264" transform="matrix(.1 0 0 -.1 0 753)">
  <g id="g1098" fill="#037503">
   <path id="path1048" d="m3500 6725v-795h390v528l188 4c226 5 276 20 354 101 90 94 93 103 96 410 3 232 1 275-14 320-31 95-86 157-181 206-41 20-53 21-438 21h-395zm607 485c46-17 53-44 53-218 0-139-2-161-20-189l-20-33h-230v450h94c51 0 107-5 123-10z"/>
   <path id="path1050" d="m4650 6725v-795h440v570h490v350h-490v330h650v340h-1090z"/>
   <path id="path1052" d="m1555 4344c-138-15-623-138-835-212l-55-19 45-8c25-4 149-5 275-3 127 1 363 2 525 2 253-1 313-4 418-23 68-11 136-21 150-21 15 0 56-9 92-20 50-16 103-22 235-26 94-2 192-9 218-14 33-7 55-7 68 1 20 10 20 12-12 40-18 16-39 29-46 29s-23 11-35 25-42 38-67 52c-26 15-59 36-76 45-43 27-125 64-165 76-35 11-73 17-316 52-133 20-346 32-419 24z"/>
   <path id="path1054" d="m7800 4114c-41-7-126-21-187-31-110-17-113-17-126 2-14 18-15 18-42-6-58-52-105-99-105-107 0-13 115-33 140-24 21 8 21 10 6 24-9 9-16 19-16 21 0 13 154 19 193 8 23-7 67-16 97-21s75-14 100-19 80-17 123-26c42-9 98-25 125-36 96-42 161-59 188-49 36 14 114 12 224-5 164-26 233-30 228-14-8 25-181 158-258 198-98 51-158 68-315 86-155 18-273 18-375-1z"/>
  </g>
  <g id="g1116" fill="#003af6">
   <path id="path1100" d="m635 4106c-27-4-64-14-81-22-17-7-107-32-200-55-93-22-173-44-179-49-5-4-36-15-67-25-31-9-67-28-80-42l-23-25 30-24c17-13 34-24 39-24s-3 9-18 21c-14 11-26 24-26 28 0 13 141 72 159 68 13-4 12-6-5-12-12-4-43-17-70-30-52-24-51-26 24-45 23-6 40-15 37-20-6-10 176-70 305-100 52-12 109-28 125-35 17-8 46-17 65-20 56-11 100-33 100-49 0-9-17-25-37-36l-38-21 40 5c22 3 50 6 61 6 16 0 23 8 28 31 10 54-32 90-144 122-82 23-18 25 77 2 98-23 201-69 217-97 8-14 4-24-18-47-34-35-121-75-144-66-15 6-15 8 3 17 27 15 28 15 21 27-7 10-120-23-145-43-11-9-9-12 15-17 28-6 28-7-7-8-20 0-53 6-72 14-52 21-64 19-76-15-9-26-15-30-49-30-47 0-75-26-70-66 4-34 40-61 104-79 32-9 41-14 24-14l-25-1 30-20c32-21 60-27 50-10-4 7 7 9 32 6 105-14 128-15 108-6-28 12 116 13 149 0 14-5 27-6 30-2 2 4 49 9 103 10 70 2 101 7 109 17 6 8 21 16 35 19 13 3 40 10 59 15 48 15 57 14 62-7 3-12 28-27 68-42 34-13 64-29 67-37 10-25-7-63-40-85-43-30-39-58 9-58 19 0 34-3 34-7 0-5-21-23-45-42-56-42-90-93-77-118 5-10 12-35 15-56s16-59 28-83c18-38 32-50 93-81 39-19 125-68 191-108s142-82 169-94c51-22 73-27 44-10-21 12-24 29-4 29 8 0 56-16 107-36 138-54 393-143 397-140 2 2-29 16-67 31-75 28-85 39-48 49 40 10 65 7 164-25 100-32 100-33 38-54l-20-7 20-8c28-12 94-12 137 0 32 9 60 4 205-35 186-50 190-51 174-31-7 8-40 17-73 21-56 7-60 9-43 21 25 19 66 17 215-6 193-31 195-25 8 30-27 8-48 17-48 21 0 13 216 22 380 15 91-3 262-15 380-27 118-11 298-23 400-26 180-6 202-14 78-28-54-6-90-27-74-43 13-12 406-15 476-2 36 6 121 15 191 19 86 6 134 13 155 25 29 17 28 17-46 11-41-4-82-11-92-16-30-16-198-22-277-10-74 12-200 50-255 78-19 10-25 18-18 25 16 16 248 22 317 9 227-44 554-12 717 70 42 21 84 39 91 39 8 0 45-15 83-34s81-38 97-41c36-9 159 4 152 16-4 5-15 9-25 9-37 0-30 19 12 32l43 13-50 7c-27 3-78 7-112 7-34 1-69 4-79 8-26 10 310 73 389 73 49 0 67 4 67 13 0 25 259 77 555 112 204 24 345 47 345 56 0 4-41 5-90 2-51-3-90-2-90 3 0 9 259 75 290 74 9 0 21 5 27 11s53 22 104 36c70 18 117 25 186 24 51 0 94 3 98 8 22 37 411 95 868 130 161 12 231 22 237 31s36 12 106 12c105-1 284 15 321 29 12 5 99 18 193 29 248 31 302 51 223 83-51 20-226 52-393 72-347 42-677 95-727 118-51 23-19 41 102 56 144 18 153 6 15-18-25-5-38-9-30-10 35-3 383 29 473 44 194 31 437 106 437 134 0 10-26 24-205 115l-70 36-175 5c-96 4-213 13-260 22-91 16-223 20-281 9-29-6-54 0-135 32-54 21-123 44-151 51-29 6-77 16-105 22-29 6-66 15-82 20s-44 9-63 9c-18 0-50 7-71 16-29 12-56 14-124 8-89-7-98-10-76-32 19-19-34-37-73-23-61 21-85 14-167-49-42-33-86-69-97-79-33-30-122-91-134-91-6 0-11-4-11-10 0-5-9-10-19-10-18 0-39-45-26-58 3-3 72-10 153-14 81-5 194-13 252-19s135-12 172-13c72-2 93-12 82-39-6-17-20-21-63-17-13 1-26-3-30-8-3-6-65-13-136-16-72-3-215-15-320-26-196-21-255-38-255-71 0-26 49-37 196-47 71-5 140-15 152-21 12-7 27-9 32-6 6 3 10 0 10-8 0-19-104-51-220-67-50-7-155-11-255-9-311 7-769 4-862-5-86-8-92-10-98-34-8-31 19-62 54-62 14 0 51-11 81-23 48-20 55-25 57-53 2-29-1-33-45-49-76-27-172-44-250-45-41 0-71-4-68-9 10-16-171-23-624-24-387-1-1025 16-1207 32-7 0-13 7-13 15 0 17 93 43 190 51 103 9 251 42 269 60 27 27-42 44-196 51-171 7-183 9-183 34 0 11-6 20-12 20-24 0 16 20 41 20 47 0 161 45 161 63 0 5-11 6-25 3-27-7-32 3-13 22 10 10 10 17 0 32-17 28-16 29 20 20 45-10 88-31 83-40-3-4 5-16 16-25 18-17 21-17 35-3 12 12 14 26 9 57-4 23-11 41-16 41-6 0-7 5-4 10 4 6-9 10-32 10-36 1-37 1-18 16 19 14 17 15-30 14-27-1-66 2-85 5s-96 15-170 25c-130 19-137 19-192 2-48-15-54-20-40-29 15-11 15-13-5-19-13-3-23-9-23-13 0-9 92-29 168-37 34-4 62-11 62-15 0-5 20-9 45-9s45-4 45-10c0-5 15-10 33-10 27 0 36-6 46-26 11-25 10-26-11-20-13 3-27 6-31 6-5 0-6 4-3 8 3 5-63 9-147 10-258 3-418 39-374 83 7 8 16 22 20 32 3 9 12 17 19 18 7 0 4 4-7 9-31 13-115 0-167-26-46-22-48-22-48-4 0 24-60 38-96 22-13-7-30-9-37-6-7 2-41-13-74-35-49-32-64-47-72-76-11-41-7-60 22-92 24-26 17-42-7-18-9 9-16 13-16 9s-7 1-15 12c-8 10-15 29-15 42 0 12-6 22-12 22-7 1-263 1-568 0-502 0-700 6-717 24-13 12 17 29 64 37 137 23 327 28 633 15 227-9 290-2 290 34s-56 48-280 60-305 25-305 50c0 12 22 16 110 22 61 4 166 12 235 18 69 5 175 10 235 10 112 0 432 15 563 26 67 5 72 7 72 29 0 12-6 25-12 28-7 2-51 31-97 63-46 33-90 64-99 69-15 9-108 80-139 105-7 6-16 10-20 10-4 1-26 19-48 40l-39 40-171 1c-293 2-328 4-362 22-29 15-115 33-285 58-85 13-1205 17-1273 5zm-200-96c-11-5-27-9-35-9-13-1-13 0 0 9 8 5 24 9 35 9h20zm8333-457c-10-2-26-2-35 0-10 3-2 5 17 5s27-2 18-5zm-75-10c-7-2-21-2-30 0-10 3-4 5 12 5 17 0 24-2 18-5zm-4818-223c4-6-5-10-20-10s-24 4-20 10c3 6 12 10 20 10s17-4 20-10zm-1295-862c0-10-18-9-45 2-16 6-14 8 13 7 17 0 32-4 32-9zm128-3c29-9 56-14 61-11 4 3 53-10 107-28 97-34 98-34 53-35-84-2-225 36-275 74-25 19-10 19 54 0z"/>
   <path id="path1102" d="m8308 3483c7-3 16-2 19 1 4 3-2 6-13 5-11 0-14-3-6-6z"/>
   <path id="path1104" d="m5943 2518c19-7 44-7 75 0 47 10 47 10-28 10-62 0-70-1-47-10z"/>
   <path id="path1106" d="m4880 2370c-95-13-109-18-83-24 18-4 38-4 45 1 7 4 76 15 153 24 116 13 128 16 70 16-38 0-122-7-185-17z"/>
   <path id="path1108" d="m3776 2307c-8-30-1-33 39-12 19 11 33 20 32 21-1 0-16 4-33 7-27 5-33 3-38-16z"/>
   <path id="path1110" d="m3045 2260c28-12 37-12 30 0-3 6-16 10-28 9-21 0-21-1-2-9z"/>
   <path id="path1112" d="m3252 2259c4-13 68-56 68-46 0 2-16 17-36 32-20 16-35 22-32 14z"/>
   <path id="path1114" d="m4485 2230c-38-7-38-7 18-9 32 0 57 3 57 9 0 11-14 11-75 0z"/>
  </g>
  <g id="g1162">
   <path id="path1118" d="m7905 6500c-21-48-76-96-152-134-65-32-74-32-113 0-18 15-35 23-39 18-5-5-16-41-26-81l-17-72-136 12-21-41-21-42-78 56c-146 105-180 126-220 131-33 4-42 2-55-18-9-12-15-24-13-26s28-10 60-18c58-15 135-51 171-79 19-15 19-17 3-26-38-23-39-45-7-96 29-44 30-49 14-61-10-7-22-14-28-16-18-6 3-27 28-27 28 0 65 43 65 74 0 11-9 32-20 46-21 26-27 60-10 60 10 0 170-140 170-149 0-3-7-15-15-25-21-27-19-41 10-84 14-20 25-40 25-43 0-4-14-16-31-27l-31-19 26-7c26-6 64 7 78 28 14 20 8 58-13 92-42 68-11 55 61-27 138-154 160-172 160-133 0 18-57 86-207 250-73 80-90 103-77 108 12 5 36-14 83-63 78-81 94-91 157-91 90 0 145 40 238 172 65 91 97 113 176 121 63 7 100 21 100 37 0 6-11 10-25 10-35 0-86 23-109 49-24 27-32 27-69-5-29-24-31-25-38-8-5 11-6 48-3 84 4 53 1 69-14 88l-18 24zm35-34c0-22-9-45-25-64-14-17-25-36-25-43s-23-37-52-66c-44-44-49-54-38-67 7-9 9-16 4-16-5-1-20-10-33-21-17-14-21-23-14-30 16-16 65 13 114 70 62 70 199 133 199 91 0-5-8-11-17-13-11-3-6-5 12-7 28-1 26-3-18-18-49-17-181-114-192-141-3-8 0-18 7-22 19-12 1-37-56-76-112-77-251-41-293 76l-17 48-33-13c-46-20-53-18-53 16 0 56 48 60 186 15 16-5 26 2 48 35 31 48 41 48 25 1-17-49-3-49 21 1 12 23 36 57 52 75 17 17 27 36 23 42-4 7 8 17 28 26 39 16 88 61 114 105 23 39 33 38 33-4z"/>
   <path id="path1120" d="m7757 6054c-27-14-47-27-45-29 9-9 76 16 93 35 24 26 11 25-48-6z"/>
   <path id="path1122" d="m7917 5593c-87-81-301-257-359-295-39-26-43-27-60-12-38 35-94 12-162-68-35-41-48-88-24-88 7 0 37 27 68 60 59 64 95 79 84 36-4-17-1-27 12-34 16-9 16-12-2-48-14-29-26-40-46-42s-28-9-28-23c0-15 7-19 34-19 28 0 41 7 65 37 17 21 31 42 31 48 0 31 69 99 247 243 240 194 258 212 249 246-3 14-13 26-21 26s-48-30-88-67z"/>
   <path id="path1124" d="m6810 5566c-98-13-110-18-110-51 0-18-7-26-25-31-26-7-32-23-14-41 15-15-27-43-63-43-30 0-47-18-28-30 7-4 11-13 8-20-3-9-17 0-41 23-41 41-80 49-97 18-15-30-12-56 12-86 19-24 26-27 65-22l43 5-32-24c-18-14-55-39-83-57-55-35-66-65-45-118 15-35 32-37 49-5 7 13 31 33 52 45s39 29 39 36c0 27 50 126 60 120 6-3 19-23 30-44l19-38-48-32c-27-17-64-51-82-76-19-25-51-67-71-93-60-74-118-198-125-265l-6-58 47-43 47-44-86-53c-47-30-85-57-85-60 0-4 17-9 38-13 32-5 47 1 117 44 54 33 82 45 86 37 4-7 9-42 12-79l5-67-37-5c-20-3-114-13-209-22-118-11-197-24-245-40l-72-23 195 5c188 5 292 16 1104 109 568 65 838 95 859 95 12-1-15-16-59-34-167-68-378-199-649-400-466-347-669-463-863-492-53-9-106-19-117-24-11-4-67-17-125-29-223-44-427-62-755-66-143-3-307-9-365-14-136-13-649-14-860-1-483 29-806 84-982 166-43 21-78 40-78 44 0 14 112 312 171 456 33 82 65 161 71 177 12 33-5 32 332 13 409-24 472-26 456-16-8 5-28 10-44 10s-27 2-25 5c3 2 180 9 394 15 448 12 478 14 473 38-3 14-21 18-98 25-52 4-117 11-144 15l-49 7 180 124 36-37c35-35 41-37 96-36 46 1 71 8 113 31 29 16 74 38 101 48 26 10 47 20 47 22s-7 15-16 29c-15 22-15 30-4 65 15 44 6 64-16 35-13-18-15-17-57 21-54 50-98 60-172 38-65-18-117-66-135-122-29-89-97-136-190-132-59 3-69-4-45-31 15-17 16-22 4-36-12-15-29-16-137-11-119 6-170 20-188 49-9 14 31 48 57 48 14 0 19 7 19 30 0 25-4 30-24 30-18 0-42-20-86-69-58-66-98-91-143-91-11 0-31-12-45-27l-25-27-15 22c-13 19-23 22-88 22-48 0-74 4-74 11 0 6 17 28 38 49 29 29 50 40 95 49 31 7 66 10 77 6 18-6 19-8 4-31l-16-24h66c36 0 66 3 66 6 0 4-16 27-36 50-28 35-42 44-67 44-18 1-43 7-57 15s-33 14-42 15c-9 0-63-34-119-76-115-86-165-111-236-120-26-4-59-14-73-22-17-11-43-15-85-13-33 1-61 4-63 5-1 2 14 41 34 87 21 46 52 125 69 174 24 70 37 93 57 102 40 20 48 36 69 139 14 68 39 138 85 239 35 79 71 165 79 192 17 56 19 113 5 113-23 0-67-31-115-80-27-28-116-94-197-147-135-86-148-98-148-124 0-18 5-29 13-29 14 0 186 117 277 188l45 35-40-38c-22-21-69-64-104-96-63-57-72-81-35-87 13-2 43 20 88 65 38 37 71 63 73 56 2-6-12-48-33-92-30-67-43-84-73-98-25-13-46-36-73-84-37-65-246-284-270-284-16 0-97 106-98 126 0 22 29 46 152 128 88 58 105 74 101 91-3 11-11 20-18 20-18 0-171-95-220-137-32-28-40-31-48-18-12 21-25 19-29-6-2-17-11-10-43 37-43 63-78 87-113 77-37-9-26-36 23-56 36-15 56-34 99-95 30-43 85-111 124-152l69-75 40 28c63 44 238 228 263 276 18 37 24 42 31 28 7-12 18-15 41-10 31 6 31 6 24-27-10-52-32-78-76-90-35-10-50-24-112-108-118-161-174-211-221-196-12 4-67 49-122 101-136 129-218 174-202 112 4-14-1-21-19-25-18-5-24-12-22-28 3-19 10-21 76-24 86-3 96-14 107-109 4-35 10-63 13-63 21 1 33 19 27 42-10 39 6 40 48 2 32-30 35-35 20-41-10-4-21-11-24-16-6-9-317 10-953 59-199 15-332 22-338 16-5-5-6-32-2-60 6-50 8-52 43-58 48-8 191-43 216-54 64-26 191-88 260-127 88-51 248-163 281-196 23-25 80-71 117-96 65-43 113-77 123-86 6-6 45-33 87-60 42-28 77-55 77-61 0-14-98-22-440-34-245-9-490-22-667-36-51-4-80-11-95-25l-23-19 23-19c33-28 102-39 316-51 182-10 271-24 260-42-3-4-184-8-403-8-415 1-501-5-560-41-57-34-35-55 75-69 49-7 292-10 647-8l568 3 6-25c15-67 132-131 150-84 4 11-7 29-36 55-42 39-44 47-26 106 10 31 180 103 206 87 5-3 6-18 2-34-3-16-3-36 1-45 5-13 12-9 40 18 38 38 124 73 140 57 6-6 5-14-3-24-39-47 84-86 306-95 78-3 144-9 148-12 3-4-41-10-99-14-102-7-207-1-276 15-19 4-47 11-61 14s-38 17-55 31c-33 28-62 32-71 9-11-30 14-61 64-79 65-24 396-33 536-15 54 7 100 10 103 7 6-6-109-31-217-48-122-18-324-7-444 25-118 32-152 50-183 97-13 18-28 36-33 38-18 6-49-31-49-58 0-52 52-95 145-120 78-21 305-31 475-22 161 9 165 9 183-11 16-19 34-22 170-30 169-10 204-15 191-28-8-8-61-17-279-51-114-17-175-42-175-71 0-18 75-40 154-43 289-14 908-30 1166-30 370 1 531 14 834 67 162 28 194 115 61 165-33 12-72 24-87 28-31 6-37 29-10 40 40 16 339 22 637 14 421-13 566-3 714 49 65 22 84 44 58 69-18 18-181 41-297 43-53 0-91 12-78 25 22 22 231 50 453 60 279 13 355 30 355 81 0 19-8 28-33 39-39 16-206 31-454 41-97 4-170 10-167 15 6 10 248 195 319 244 24 17 48 39 55 50 19 33 315 259 438 333 108 66 248 126 355 153l87 21v59c0 37-4 59-11 59-6 0-136-16-288-35-229-29-959-115-974-115-2 0-7 19-10 43-8 65-23 97-48 97-20 0-21-4-15-37 4-21 10-54 13-74l5-36-168-17c-93-9-178-18-189-19-18-2-20 5-23 78l-4 80 25-23c21-20 26-21 37-8 10 13 4 26-34 77-56 75-65 105-67 244-3 136 2 147 115 249 76 69 87 76 106 66 32-17 48-6 76 54 21 46 29 55 58 60 29 6 35 12 40 41 4 21 17 42 31 51s25 23 25 30c0 15 12 17 48 8 17-5 22-14 22-41 0-19-7-48-16-65-11-21-14-43-10-73 5-33 3-44-9-48-8-4-15-15-15-26s-9-25-20-31-20-17-20-24c0-8-7-20-16-27-14-11-19-9-36 14-27 37-43 34-74-12-23-36-28-39-63-34-38 5-101-18-101-36 0-43 28-52 67-21 44 35 74 24 88-32 13-50 31-55 90-24 30 15 73 30 97 33 54 7 114 37 128 64 7 11 10 23 7 25-3 3-33-6-67-20s-79-28-99-32-49-13-65-22c-28-14-31-13-48 8-10 12-18 26-18 30 0 17 34 34 64 32 40-3 83 28 102 75 8 18 21 33 29 33 18 0 20 34 4 78-8 24-7 36 4 54 18 28 30 133 20 170-5 14-27 47-50 72-47 51-44 51-183 32zm172-53c40-42 70-93 54-93-3 0-28 5-55 11-49 10-51 10-75-18-14-15-26-33-26-39 0-28-43-64-82-70-29-5-42-13-48-29-9-24-46-55-66-55-7 0-19 18-28 40-9 23-23 43-31 46-8 4-15 18-15 33 0 22 8 31 46 49 37 18 45 27 41 43-3 13 2 28 14 40 10 10 19 27 19 38 0 22 35 31 116 31 29 0 56 5 59 10 12 19 31 10 77-37zm-526-778c8-54 12-100 10-102-2-3-18 5-35 18-40 29-54 65-41 108 10 38 39 85 46 78 3-3 12-49 20-102zm-2937-197c-29-69-46-88-80-88h-28l35 38c20 20 47 54 61 75 14 20 28 36 30 33 2-2-6-28-18-58zm-36-124c-11-32-19-44-30-40-8 3-51 6-96 6-91 1-87 10 10 30 34 7 74 21 90 30 41 27 43 25 26-26zm-1208-4c105-6 403-24 663-40 260-17 481-30 492-30s20-5 20-11c0-28-239-602-258-621-9-9-156 89-312 207-344 259-553 384-790 470-93 33-94 34-50 34 25 1 131-4 235-9zm1666-944c131-31 173-52 177-91l4-28-31 25c-17 15-59 35-93 47-63 21-276 60-333 62-16 0-39 5-50 10-44 20 218 1 326-25zm-152-25c131-26 181-51 167-86-4-12-10-10-29 9-26 26-107 48-254 68-51 7-89 16-87 20 9 14 100 9 203-11z"/>
   <path id="path1126" d="m6845 5510c-18-8-17-9 7-9 15-1 30 4 33 9 7 12-12 12-40 0z"/>
   <path id="path1128" d="m6922 5493c-16-29-15-33 8-33 22 0 23 4 11 35-8 19-8 19-19-2z"/>
   <path id="path1130" d="m6800 5470c-21-7-18-8 18-9 26-1 41 3 37 9-7 11-19 11-55 0z"/>
   <path id="path1132" d="m6742 5415c9-19 14-22 25-13 15 12 16 11-14 27-22 11-22 10-11-14z"/>
   <path id="path1134" d="m6838 5398c-16-5-28-16-28-25 0-11 6-10 30 7 25 17 39 33 28 29-2 0-15-5-30-11z"/>
   <path id="path1136" d="m6685 5370c3-5 10-10 16-10 5 0 9 5 9 10 0 6-7 10-16 10-8 0-12-4-9-10z"/>
   <path id="path1138" d="m6750 5345c-11-13-8-15 15-15s26 2 15 15c-7 8-14 15-15 15s-8-7-15-15z"/>
   <path id="path1140" d="m6685 5320c-9-15-1-23 21-18 15 3 16 4 1 16-11 9-17 10-22 2z"/>
   <path id="path1142" d="m2510 4249c214-124 381-228 520-326 89-62 160-109 158-105-7 18-168 157-240 208-113 80-247 157-351 202-121 52-155 61-87 21z"/>
   <path id="path1144" d="m3113 5539c-50-25-88-66-117-129-18-39-21-63-21-192 1-81 4-150 7-153 3-4 25-1 48 5 41 11 42 12 37 47-6 33-5 34 12 19 10-9 23-16 30-16 14 0 31 42 31 77 0 18 13 38 40 63 30 28 40 45 40 68 0 64 17 75 71 46 43-22 50-50 28-106-14-36-16-54-9-74 14-35 13-44-5-44-8 0-15-9-15-20s-7-23-16-27c-8-3-20-16-25-29-5-14-17-24-29-24-11 0-20-4-20-9 0-39 80 1 100 49 7 17 19 30 26 30 10 0 13 16 13 63-2 74 13 163 29 179 25 25 13 65-30 103-40 35-150 95-173 95-5 0-29-9-52-21z"/>
   <path id="path1146" d="m7271 5064c-33-37-33-54-1-54 24 0 76 44 83 70 4 17 0 20-23 20-20 0-37-11-59-36z"/>
   <path id="path1148" d="m3132 5037c-25-26-29-62-8-70 7-3 16-22 19-42 12-72 47-88 47-20v44l48-2c38-1 58 5 104 33 32 19 58 38 58 43 0 17-68 5-101-17-23-16-44-22-61-19-14 3-35 0-47-7-30-15-47-3-26 20 11 12 14 26 10 39-8 27-16 26-43-2z"/>
   <path id="path1150" d="m2855 4943c-30-37-60-84-66-105-5-22-8-108-6-202 3-130 8-169 20-187 9-12 20-19 24-15 5 4 8 89 8 189 0 201 7 231 75 317 16 21 30 45 30 54 0 33-31 14-85-51z"/>
   <path id="path1152" d="m7126 4959c-31-27-34-33-24-55l11-24 36 27c20 14 38 28 40 29 7 6-10 54-19 54-5 0-25-14-44-31z"/>
   <path id="path1154" d="m6934 4856c-38-27-175-67-208-60-25 4-36 0-59-24-37-38-32-64 11-73 51-10 57-22 27-55-23-25-31-63-12-56 4 1 20 2 36 2 37 0 60 47 42 86-17 38-14 46 16 42 22-2 33-13 50-50 17-35 28-48 44-48 20 0 21 4 14 43-19 113-23 99 45 132 48 23 60 33 58 50-4 25-36 31-64 11z"/>
   <path id="path1156" d="m5386 4714c-10-26 26-78 63-90l33-10-56-35c-31-19-56-37-56-41s15-9 33-12c17-3 50-8 72-11 55-8 105-25 105-35 0-4-11-11-25-14-14-4-25-13-25-21 0-13 25-15 155-15 97 0 155-4 155-10 0-17-334-13-377 5-45 19-74 19-99 0-12-9-44-14-92-15-77 0-112-11-112-35 0-10 11-15 35-15 20 0 47-7 60-16 20-13 33-14 65-6 29 7 57 7 101-2 55-12 64-11 100 7 32 16 44 17 70 8 45-15 94-14 109 4 17 20 36 19 87-6 35-17 58-20 114-17 67 4 81 10 92 43 2 5 22 8 45 7 35-2 42 0 42 16 0 26-24 46-92 76-33 14-58 31-58 40 0 23-29 46-58 46-15 0-42 9-60 20-44 27-60 25-68-7-8-31 15-53 56-53 14 0 35-7 46-15 17-13 12-14-55-15-55 0-95 7-163 30-50 17-99 36-110 44-18 13-17 16 31 56 53 45 70 75 53 92-7 7-21 4-45-11-45-28-86-27-127 4-40 30-36 29-44 9z"/>
   <path id="path1158" d="m6095 4545c-16-8-40-14-53-15-28 0-39-25-21-46 10-12 23-14 54-9 31 4 45 2 55-10 7-9 28-15 51-15 26 0 41-6 48-17 16-29 24-7 8 24-20 38-83 103-99 102-7 0-26-7-43-14z"/>
   <path id="path1160" d="m6420 3709c-333-69-703-114-1120-136l-145-7 110-8c205-14 561 8 825 53 128 22 433 96 505 123 59 22 31 18-175-25z"/>
  </g>
  <g id="g1168" fill="#211f20">
   <path id="path1164" d="m4620 3885v-245h110v160h49c116 0 141 31 141 175 0 93-1 98-29 126-29 29-30 29-150 29h-121zm185 85v-65l-37-3-38-3v142l38-3 37-3z"/>
   <path id="path1166" d="m4960 3885v-245h130v170h150v110h-150v110h190v100h-320z"/>
  </g>
 </g>
 <g stroke-width="2.6665">
  <g id="text6824" fill="#037503" aria-label="PATRIOTIC FRONT">
   <path id="path76247" d="m41.258619 570.64804h32.026619q10.46288 0 15.651787 4.97625 5.23144 4.97625 5.23144 14.16317 0 9.44211-5.699292 14.75861-5.65676 5.31651-17.310536 5.31651h-10.547944v23.13742h-19.352074zm19.352074 26.58252h4.721055q5.571696 0 7.825894-1.91394 2.254198-1.95647 2.254198-4.97625 0-2.93471-1.956474-4.97624-1.956473-2.04154-7.358041-2.04154h-5.486632z"/>
   <path id="path76249" d="m133.87863 622.70725h-21.94653l-3.01978 10.29275h-19.692326l23.435146-62.35196h21.01083l23.43514 62.35196h-20.16018zm-4.04055-13.48266-6.89019-22.41438-6.84765 22.41438z"/>
   <path id="path76251" d="m151.55719 570.64804h58.56661v15.3966h-19.6498v46.95536h-19.26701v-46.95536h-19.6498z"/>
   <path id="path76253" d="m217.7648 633v-62.35196h32.11168q8.93173 0 13.65278 1.53116 4.72106 1.53115 7.61324 5.69929 2.89218 4.12561 2.89218 10.08009 0 5.18891-2.21167 8.97426-2.21167 3.74282-6.08208 6.08208-2.46686 1.48862-6.76259 2.46686 3.44509 1.14836 5.01878 2.29673 1.0633 0.76557 3.0623 3.27496 2.04154 2.50939 2.72205 3.87042l9.31452 18.07611h-21.7764l-10.29275-19.05435q-1.95648-3.70029-3.48763-4.80612-2.08407-1.44609-4.72106-1.44609h-1.70128v25.30656zm19.35207-37.08793h8.12362q1.31849 0 5.10384-0.85064 1.91395-0.38279 3.10484-1.95647 1.23343-1.57369 1.23343-3.61523 0-3.01977-1.91394-4.63599t-7.18791-1.61622h-8.46388z"/>
   <path id="path76255" d="m284.69547 570.64804h19.30954v62.35196h-19.30954z"/>
   <path id="path76257" d="m314.07033 601.86655q0-15.269 8.5064-23.7754 8.50641-8.50641 23.69035-8.50641 15.56672 0 23.98806 8.37881 8.42134 8.33628 8.42134 23.39262 0 10.93073-3.70028 17.94852-3.65776 6.97525-10.63301 10.8882-6.93272 3.87041-17.31054 3.87041-10.54794 0-17.48066-3.36003-6.89019-3.36003-11.18593-10.63301-4.29573-7.27297-4.29573-18.20371zm19.26701 0.0851q0 9.44211 3.48762 13.56772 3.53016 4.1256 9.56971 4.1256 6.20968 0 9.61224-4.04054t3.40256-14.50342q0-8.80413-3.57269-12.84468-3.53016-4.08307-9.61224-4.08307-5.82689 0-9.35704 4.12561-3.53016 4.1256-3.53016 13.65278z"/>
   <path id="path76259" d="m381.08605 570.64804h58.56661v15.3966h-19.6498v46.95536h-19.26701v-46.95536h-19.6498z"/>
   <path id="path76261" d="m447.80405 570.64804h19.30955v62.35196h-19.30955z"/>
   <path id="path76263" d="m521.11453 607.52331 16.88521 5.10385q-1.70128 7.10285-5.35903 11.86643-3.65776 4.76359-9.10186 7.18792-5.40156 2.42432-13.78037 2.42432-10.16516 0-16.63003-2.93471-6.42234-2.97724-11.10086-10.42034-4.67852-7.44311-4.67852-19.05435 0-15.48166 8.20868-23.77541 8.25121-8.33628 23.30755-8.33628 11.78138 0 18.50144 4.76359 6.76259 4.76359 10.03756 14.63102l-17.01282 3.78535q-0.89317-2.84965-1.87141-4.16814-1.61621-2.21167-3.95548-3.40256-2.33926-1.1909-5.23143-1.1909-6.54994 0-10.03756 5.27397-2.63699 3.91295-2.63699 12.29176 0 10.37781 3.14737 14.24823 3.14737 3.82788 8.84666 3.82788 5.52917 0 8.33628-3.10484 2.84965-3.10483 4.12561-9.01679z"/>
   <path id="path76265" d="m573.82474 570.64804h47.63588v13.39759h-28.2838v10.8882h24.15819v12.58948h-24.15819v25.47669h-19.35208z"/>
   <path id="path76267" d="m630.76037 633v-62.35196h32.11169q8.93172 0 13.65278 1.53116 4.72105 1.53115 7.61323 5.69929 2.89218 4.12561 2.89218 10.08009 0 5.18891-2.21166 8.97426-2.21167 3.74282-6.08209 6.08208-2.46685 1.48862-6.76259 2.46686 3.4451 1.14836 5.01878 2.29673 1.0633 0.76557 3.06231 3.27496 2.04154 2.50939 2.72205 3.87042l9.31451 18.07611h-21.7764l-10.29275-19.05435q-1.95647-3.70029-3.48763-4.80612-2.08406-1.44609-4.72105-1.44609h-1.70128v25.30656zm19.35208-37.08793h8.12362q1.31849 0 5.10384-0.85064 1.91394-0.38279 3.10484-1.95647 1.23343-1.57369 1.23343-3.61523 0-3.01977-1.91394-4.63599-1.91395-1.61622-7.18792-1.61622h-8.46387z"/>
   <path id="path76269" d="m693.0125 601.86655q0-15.269 8.5064-23.7754 8.50641-8.50641 23.69034-8.50641 15.56673 0 23.98807 8.37881 8.42134 8.33628 8.42134 23.39262 0 10.93073-3.70029 17.94852-3.65775 6.97525-10.633 10.8882-6.93272 3.87041-17.31054 3.87041-10.54794 0-17.48066-3.36003-6.89019-3.36003-11.18593-10.63301-4.29573-7.27297-4.29573-18.20371zm19.26701 0.0851q0 9.44211 3.48762 13.56772 3.53016 4.1256 9.56971 4.1256 6.20968 0 9.61224-4.04054t3.40256-14.50342q0-8.80413-3.57269-12.84468-3.53016-4.08307-9.61224-4.08307-5.82689 0-9.35704 4.12561-3.53016 4.1256-3.53016 13.65278z"/>
   <path id="path76271" d="m766.7908 570.64804h17.99105l23.47768 34.49348v-34.49348h18.16118v62.35196h-18.16118l-23.35009-34.23828v34.23828h-18.11864z"/>
   <path id="path76273" d="m833.50878 570.64804h58.56661v15.3966h-19.6498v46.95536h-19.26701v-46.95536h-19.6498z"/>
  </g>
  <g id="text6824-3" fill="#037503" aria-label="THE BOAT">
   <path id="path76232" d="m323.22345 712.90186h37.05232v9.7407h-12.4315v29.70644h-12.18932v-29.70644h-12.4315z"/>
   <path id="path76234" d="m361.84598 712.90186h12.18933v13.80381h13.31947v-13.80381h12.24314v39.44714h-12.24314v-15.95645h-13.31947v15.95645h-12.18933z"/>
   <path id="path76236" d="m403.67058 712.90186h32.66632v8.42221h-20.45009v6.26956h18.97015v8.0455h-18.97015v7.77641h21.04207v8.93346h-33.2583z"/>
   <path id="path76238" d="m453.90002 712.90186h22.81799q5.70449 0 8.7451 2.82534 3.06751 2.82534 3.06751 6.99608 0 3.49804-2.17955 6.00049-1.45303 1.66829-4.25146 2.63698 4.25146 1.02251 6.24266 3.52495 2.0181 2.47554 2.0181 6.24266 0 3.06751-1.42613 5.51614-1.42612 2.44863-3.90166 3.87475-1.53376 0.88797-4.62818 1.29159-4.11692 0.53816-5.46232 0.53816h-21.04206zm12.29696 15.4721h5.30087q2.85225 0 3.95548-0.96868 1.13014-0.9956 1.13014-2.85225 0-1.72212-1.13014-2.6908-1.10323-0.96869-3.87475-0.96869h-5.3816zm0 15.49902h6.21575q3.14823 0 4.43982-1.10323 1.29158-1.13014 1.29158-3.0137 0-1.74902-1.29158-2.79843-1.26468-1.07632-4.46673-1.07632h-6.18884z"/>
   <path id="path76240" d="m491.20406 732.65234q0-9.65998 5.3816-15.04158t14.98776-5.3816q9.84833 0 15.17612 5.30088 5.32778 5.27397 5.32778 14.7994 0 6.91536-2.34099 11.35518-2.31409 4.41291-6.727 6.88845-4.38601 2.44863-10.95156 2.44863-6.67319 0-11.0592-2.12573-4.35909-2.12574-7.0768-6.72701-2.71771-4.60126-2.71771-11.51662zm12.18933 0.0538q0 5.97358 2.20645 8.58366 2.23337 2.61007 6.05431 2.61007 3.92856 0 6.08121-2.55626 2.15264-2.55626 2.15264-9.17563 0-5.56995-2.26028-8.12622-2.23336-2.58316-6.08121-2.58316-3.68639 0-5.91976 2.61007-2.23336 2.61008-2.23336 8.63747z"/>
   <path id="path76242" d="m557.0306 745.83726h-13.88453l-1.91047 6.51174h-12.45841l14.82631-39.44714h13.29256l14.82631 39.44714h-12.7544zm-2.55626-8.52984-4.3591-14.18052-4.33219 14.18052z"/>
   <path id="path76244" d="m565.05873 712.90186h37.05233v9.7407h-12.4315v29.70644h-12.18933v-29.70644h-12.4315z"/>
  </g>
  <g id="text6824-3-7" fill="#201f20" fill-opacity=".772549" aria-label="FOR LOWER TAXES, MORE JOBS AND MORE MONEY IN YOUR POCKETS">
   <path id="path76137" d="m27.589374 659.14878h13.12418v3.69117h-7.792482v2.99982h6.655834v3.46853h-6.655834v7.01909h-5.331698z"/>
   <path id="path76139" d="m41.638238 667.7498q0-4.20677 2.343603-6.55037 2.343604-2.3436 6.526936-2.3436 4.288795 0 6.608962 2.30845 2.320168 2.29673 2.320168 6.44491 0 3.01153-1.019468 4.945-1.007749 1.92176-2.929504 2.99981-1.910037 1.06634-4.769233 1.06634-2.906069 0-4.816106-0.92572-1.898319-0.92572-3.081839-2.9295-1.183519-2.00379-1.183519-5.01532zm5.308262 0.0234q0 2.6014 0.960877 3.73805 0.972596 1.13664 2.636554 1.13664 1.710831 0 2.648272-1.11321 0.937442-1.11321 0.937442-3.99584 0-2.42563-0.984314-3.53884-0.972595-1.12493-2.648272-1.12493-1.605368 0-2.577964 1.13665-0.972595 1.13664-0.972595 3.76148z"/>
   <path id="path76141" d="m61.100823 676.32739v-17.17861h8.847103q2.460784 0 3.761484 0.42185t2.097525 1.57021q0.796825 1.13665 0.796825 2.77717 0 1.4296-0.609336 2.4725-0.609337 1.03119-1.675677 1.67568-0.679645 0.41013-1.863165 0.67964 0.94916 0.31639 1.382726 0.63278 0.292951 0.21092 0.843698 0.90229 0.562464 0.69136 0.749953 1.06633l2.566246 4.98016h-5.999626l-2.83576-5.24967q-0.539029-1.01947-0.960877-1.32414-0.574183-0.39841-1.3007-0.39841h-0.468721v6.97222zm5.331698-10.21811h2.238141q0.363259 0 1.406162-0.23436 0.527311-0.10546 0.855416-0.53903 0.339822-0.43356 0.339822-0.99603 0-0.83198-0.527311-1.27726-0.52731-0.44529-1.980345-0.44529h-2.331885z"/>
   <path id="path76143" d="m85.167554 659.14878h5.308262v12.94841h8.284639v4.2302h-13.592901z"/>
   <path id="path76145" d="m98.82972 667.7498q0-4.20677 2.3436-6.55037 2.34361-2.3436 6.52694-2.3436 4.28879 0 6.60896 2.30845 2.32017 2.29673 2.32017 6.44491 0 3.01153-1.01947 4.945-1.00775 1.92176-2.9295 2.99981-1.91004 1.06634-4.76924 1.06634-2.90606 0-4.8161-0.92572-1.89832-0.92572-3.08184-2.9295-1.18352-2.00379-1.18352-5.01532zm5.30826 0.0234q0 2.6014 0.96088 3.73805 0.9726 1.13664 2.63655 1.13664 1.71083 0 2.64828-1.11321 0.93744-1.11321 0.93744-3.99584 0-2.42563-0.98432-3.53884-0.97259-1.12493-2.64827-1.12493-1.60537 0-2.57796 1.13665-0.9726 1.13664-0.9726 3.76148z"/>
   <path id="path76147" d="m116.04245 659.14878h5.03875l1.81629 9.59705 2.64827-9.59705h5.02703l2.65999 9.59705 1.8163-9.59705h5.01531l-3.78492 17.17861h-5.2028l-3.01153-10.81573-2.99982 10.81573h-5.2028z"/>
   <path id="path76149" d="m140.53206 659.14878h14.22568v3.66774h-8.9057v2.7303h8.26121v3.50368h-8.26121v3.38651h9.16349v3.89038h-14.48347z"/>
   <path id="path76151" d="m156.67845 676.32739v-17.17861h8.84711q2.46078 0 3.76148 0.42185t2.09752 1.57021q0.79683 1.13665 0.79683 2.77717 0 1.4296-0.60934 2.4725-0.60933 1.03119-1.67567 1.67568-0.67965 0.41013-1.86317 0.67964 0.94916 0.31639 1.38273 0.63278 0.29295 0.21092 0.84369 0.90229 0.56247 0.69136 0.74996 1.06633l2.56624 4.98016h-5.99962l-2.83576-5.24967q-0.53903-1.01947-0.96088-1.32414-0.57418-0.39841-1.3007-0.39841h-0.46872v6.97222zm5.3317-10.21811h2.23814q0.36326 0 1.40616-0.23436 0.52731-0.10546 0.85542-0.53903 0.33982-0.43356 0.33982-0.99603 0-0.83198-0.52731-1.27726-0.52731-0.44529-1.98034-0.44529h-2.33189z"/>
   <path id="path76153" d="m179.53823 659.14878h16.13571v4.24192h-5.41373v12.93669h-5.30826v-12.93669h-5.41372z"/>
   <path id="path76155" d="m205.7504 673.49163h-6.0465l-0.83198 2.83576h-5.42544l6.45663-17.17861h5.7887l6.45663 17.17861h-5.55435zm-1.11321-3.71461-1.89832-6.17539-1.8866 6.17539z"/>
   <path id="path76157" d="m211.39743 659.14878h5.84729l3.04669 5.28482 2.95294-5.28482h5.7887l-5.34342 8.31979 5.84729 8.85882h-5.96447l-3.3865-5.51918-3.39823 5.51918h-5.92932l5.92932-8.95256z"/>
   <path id="path76159" d="m229.96946 659.14878h14.22567v3.66774h-8.90569v2.7303h8.2612v3.50368h-8.2612v3.38651h9.16349v3.89038h-14.48347z"/>
   <path id="path76161" d="m245.11981 670.64415 5.05047-0.31638q0.16405 1.23039 0.66793 1.87488 0.82026 1.0429 2.3436 1.0429 1.13665 0 1.74598-0.52731 0.62106-0.53903 0.62106-1.24211 0-0.66792-0.5859-1.19523-0.5859-0.52732-2.71858-0.99604-3.49197-0.7851-4.98016-2.0858-1.49991-1.3007-1.49991-3.3162 0-1.32414 0.76168-2.49594 0.77338-1.18352 2.30845-1.85145 1.54677-0.67964 4.2302-0.67964 3.29276 0 5.01531 1.23039 1.73427 1.21867 2.06237 3.89038l-5.00359 0.29295q-0.19921-1.16008-0.8437-1.68739-0.63277-0.52731-1.7577-0.52731-0.92572 0-1.39445 0.39841-0.46872 0.38669-0.46872 0.94916 0 0.41013 0.3867 0.73823 0.37498 0.33983 1.78114 0.63278 3.48025 0.74995 4.98015 1.52334 1.51163 0.76167 2.19127 1.89832 0.69137 1.13665 0.69137 2.54281 0 1.65224-0.91401 3.04668-0.914 1.39445-2.55453 2.12096-1.64052 0.7148-4.13646 0.7148-4.38254 0-6.06993-1.68739-1.68739-1.6874-1.91004-4.2888z"/>
   <path id="path76163" d="m261.80523 671.59331h5.09734v3.92554q0 2.16783-0.90229 3.42166t-3.08184 2.21471l-1.11321-2.08581q1.35929-0.63277 1.86316-1.26555 0.5156-0.62105 0.57419-1.47647h-2.43735z"/>
   <path id="path76165" d="m275.51324 659.14878h6.98394l2.69514 10.45247 2.68343-10.45247h6.9605v17.17861h-4.33567v-13.10074l-3.36307 13.10074h-3.92553l-3.35136-13.10074v13.10074h-4.34738z"/>
   <path id="path76167" d="m296.28824 667.7498q0-4.20677 2.3436-6.55037 2.34361-2.3436 6.52694-2.3436 4.28879 0 6.60896 2.30845 2.32017 2.29673 2.32017 6.44491 0 3.01153-1.01947 4.945-1.00775 1.92176-2.9295 2.99981-1.91004 1.06634-4.76924 1.06634-2.90607 0-4.8161-0.92572-1.89832-0.92572-3.08184-2.9295-1.18352-2.00379-1.18352-5.01532zm5.30826 0.0234q0 2.6014 0.96088 3.73805 0.97259 1.13664 2.63655 1.13664 1.71083 0 2.64827-1.11321 0.93745-1.11321 0.93745-3.99584 0-2.42563-0.98432-3.53884-0.97259-1.12493-2.64827-1.12493-1.60537 0-2.57796 1.13665-0.9726 1.13664-0.9726 3.76148z"/>
   <path id="path76169" d="m315.75081 676.32739v-17.17861h8.8471q2.46079 0 3.76149 0.42185t2.09752 1.57021q0.79683 1.13665 0.79683 2.77717 0 1.4296-0.60934 2.4725-0.60934 1.03119-1.67568 1.67568-0.67964 0.41013-1.86316 0.67964 0.94916 0.31639 1.38272 0.63278 0.29295 0.21092 0.8437 0.90229 0.56247 0.69136 0.74995 1.06633l2.56625 4.98016h-5.99962l-2.83576-5.24967q-0.53903-1.01947-0.96088-1.32414-0.57419-0.39841-1.3007-0.39841h-0.46872v6.97222zm5.3317-10.21811h2.23814q0.36326 0 1.40616-0.23436 0.52731-0.10546 0.85542-0.53903 0.33982-0.43356 0.33982-0.99603 0-0.83198-0.52731-1.27726-0.52731-0.44529-1.98035-0.44529h-2.33188z"/>
   <path id="path76171" d="m333.06902 659.14878h14.22567v3.66774h-8.90569v2.7303h8.2612v3.50368h-8.2612v3.38651h9.16349v3.89038h-14.48347z"/>
   <path id="path76173" d="m363.02991 659.14878h5.31998v9.33926q0 2.94122-0.52731 4.47628-0.5156 1.53506-2.09753 2.6014-1.57021 1.06634-4.031 1.06634-2.6014 0-4.03099-0.70308-1.4296-0.70308-2.21471-2.05065-0.77339-1.35929-0.91401-3.35136l5.07391-0.69136q0.0117 1.13665 0.1992 1.6874 0.18749 0.55074 0.63278 0.89056 0.30466 0.22265 0.86713 0.22265 0.89057 0 1.3007-0.65621 0.42185-0.66793 0.42185-2.23814z"/>
   <path id="path76175" d="m369.95422 667.7498q0-4.20677 2.34361-6.55037 2.3436-2.3436 6.52693-2.3436 4.2888 0 6.60897 2.30845 2.32016 2.29673 2.32016 6.44491 0 3.01153-1.01946 4.945-1.00775 1.92176-2.92951 2.99981-1.91004 1.06634-4.76923 1.06634-2.90607 0-4.81611-0.92572-1.89832-0.92572-3.08184-2.9295-1.18352-2.00379-1.18352-5.01532zm5.30827 0.0234q0 2.6014 0.96087 3.73805 0.9726 1.13664 2.63656 1.13664 1.71083 0 2.64827-1.11321t0.93744-3.99584q0-2.42563-0.98431-3.53884-0.9726-1.12493-2.64827-1.12493-1.60537 0-2.57797 1.13665-0.97259 1.13664-0.97259 3.76148z"/>
   <path id="path76177" d="m389.3582 659.14878h9.93688q2.48422 0 3.80836 1.23039 1.33585 1.23039 1.33585 3.04668 0 1.52335-0.94916 2.61312-0.63277 0.72652-1.85144 1.14837 1.85144 0.44528 2.71858 1.53506 0.87885 1.07806 0.87885 2.71858 0 1.33585-0.62106 2.40219-0.62105 1.06634-1.69911 1.6874-0.66793 0.38669-2.0155 0.56246-1.79286 0.23436-2.37876 0.23436h-9.16349zm5.35514 6.73786h2.30845q1.24211 0 1.72255-0.42185 0.49215-0.43357 0.49215-1.24211 0-0.74995-0.49215-1.1718-0.48044-0.42185-1.6874-0.42185h-2.3436zm0 6.74958h2.70686q1.37101 0 1.93347-0.48044 0.56247-0.49216 0.56247-1.31242 0-0.76167-0.56247-1.21867-0.55074-0.46872-1.94519-0.46872h-2.69514z"/>
   <path id="path76179" d="m405.821 670.64415 5.05047-0.31638q0.16405 1.23039 0.66792 1.87488 0.82026 1.0429 2.34361 1.0429 1.13664 0 1.74598-0.52731 0.62106-0.53903 0.62106-1.24211 0-0.66792-0.5859-1.19523-0.58591-0.52732-2.71858-0.99604-3.49197-0.7851-4.98016-2.0858-1.49991-1.3007-1.49991-3.3162 0-1.32414 0.76167-2.49594 0.77339-1.18352 2.30845-1.85145 1.54678-0.67964 4.23021-0.67964 3.29276 0 5.01531 1.23039 1.73427 1.21867 2.06237 3.89038l-5.00359 0.29295q-0.19921-1.16008-0.8437-1.68739-0.63277-0.52731-1.7577-0.52731-0.92573 0-1.39445 0.39841-0.46872 0.38669-0.46872 0.94916 0 0.41013 0.3867 0.73823 0.37497 0.33983 1.78113 0.63278 3.48026 0.74995 4.98016 1.52334 1.51163 0.76167 2.19127 1.89832 0.69136 1.13665 0.69136 2.54281 0 1.65224-0.914 3.04668-0.91401 1.39445-2.55453 2.12096-1.64052 0.7148-4.13646 0.7148-4.38254 0-6.06993-1.68739-1.6874-1.6874-1.91004-4.2888z"/>
   <path id="path76181" d="m440.11755 673.49163h-6.04649l-0.83198 2.83576h-5.42544l6.45662-17.17861h5.7887l6.45663 17.17861h-5.55434zm-1.11321-3.71461-1.89832-6.17539-1.8866 6.17539z"/>
   <path id="path76183" d="m446.98326 659.14878h4.95673l6.46834 9.50331v-9.50331h5.00359v17.17861h-5.00359l-6.43319-9.433v9.433h-4.99188z"/>
   <path id="path76185" d="m465.74278 659.14878h7.88623q2.33188 0 3.76148 0.63277 1.44132 0.63277 2.37876 1.81629t1.35929 2.75374q0.42185 1.57021 0.42185 3.32792 0 2.75373-0.63277 4.27707-0.62106 1.51163-1.73427 2.54281-1.11321 1.01947-2.39048 1.35929-1.74598 0.46872-3.16386 0.46872h-7.88623zm5.30826 3.89038v9.38613h1.3007q1.66396 0 2.36704-0.36326 0.70309-0.37497 1.1015-1.28898 0.39841-0.92572 0.39841-2.98809 0-2.7303-0.89057-3.73805t-2.95294-1.00775z"/>
   <path id="path76187" d="m489.75091 659.14878h6.98394l2.69514 10.45247 2.68343-10.45247h6.9605v17.17861h-4.33567v-13.10074l-3.36307 13.10074h-3.92553l-3.35136-13.10074v13.10074h-4.34738z"/>
   <path id="path76189" d="m510.52591 667.7498q0-4.20677 2.3436-6.55037 2.34361-2.3436 6.52694-2.3436 4.28879 0 6.60896 2.30845 2.32017 2.29673 2.32017 6.44491 0 3.01153-1.01947 4.945-1.00775 1.92176-2.9295 2.99981-1.91004 1.06634-4.76924 1.06634-2.90606 0-4.8161-0.92572-1.89832-0.92572-3.08184-2.9295-1.18352-2.00379-1.18352-5.01532zm5.30826 0.0234q0 2.6014 0.96088 3.73805 0.9726 1.13664 2.63655 1.13664 1.71083 0 2.64828-1.11321 0.93744-1.11321 0.93744-3.99584 0-2.42563-0.98432-3.53884-0.97259-1.12493-2.64827-1.12493-1.60537 0-2.57796 1.13665-0.9726 1.13664-0.9726 3.76148z"/>
   <path id="path76191" d="m529.98851 676.32739v-17.17861h8.8471q2.46079 0 3.76149 0.42185t2.09752 1.57021q0.79683 1.13665 0.79683 2.77717 0 1.4296-0.60934 2.4725-0.60934 1.03119-1.67568 1.67568-0.67964 0.41013-1.86316 0.67964 0.94916 0.31639 1.38273 0.63278 0.29295 0.21092 0.84369 0.90229 0.56247 0.69136 0.74996 1.06633l2.56624 4.98016h-5.99962l-2.83576-5.24967q-0.53903-1.01947-0.96088-1.32414-0.57418-0.39841-1.3007-0.39841h-0.46872v6.97222zm5.3317-10.21811h2.23814q0.36326 0 1.40616-0.23436 0.52731-0.10546 0.85542-0.53903 0.33982-0.43356 0.33982-0.99603 0-0.83198-0.52731-1.27726-0.52731-0.44529-1.98035-0.44529h-2.33188z"/>
   <path id="path76193" d="m547.30666 659.14878h14.22568v3.66774h-8.9057v2.7303h8.2612v3.50368h-8.2612v3.38651h9.16349v3.89038h-14.48347z"/>
   <path id="path76195" d="m570.061 659.14878h6.98394l2.69514 10.45247 2.68343-10.45247h6.9605v17.17861h-4.33567v-13.10074l-3.36307 13.10074h-3.92553l-3.35136-13.10074v13.10074h-4.34738z"/>
   <path id="path76197" d="m590.836 667.7498q0-4.20677 2.3436-6.55037 2.34361-2.3436 6.52694-2.3436 4.28879 0 6.60896 2.30845 2.32017 2.29673 2.32017 6.44491 0 3.01153-1.01947 4.945-1.00775 1.92176-2.9295 2.99981-1.91004 1.06634-4.76924 1.06634-2.90607 0-4.8161-0.92572-1.89832-0.92572-3.08184-2.9295-1.18352-2.00379-1.18352-5.01532zm5.30826 0.0234q0 2.6014 0.96088 3.73805 0.97259 1.13664 2.63655 1.13664 1.71083 0 2.64827-1.11321 0.93745-1.11321 0.93745-3.99584 0-2.42563-0.98432-3.53884-0.97259-1.12493-2.64827-1.12493-1.60537 0-2.57796 1.13665-0.9726 1.13664-0.9726 3.76148z"/>
   <path id="path76199" d="m610.26345 659.14878h4.95672l6.46834 9.50331v-9.50331h5.0036v17.17861h-5.0036l-6.43319-9.433v9.433h-4.99187z"/>
   <path id="path76201" d="m628.94094 659.14878h14.22567v3.66774h-8.90569v2.7303h8.2612v3.50368h-8.2612v3.38651h9.16349v3.89038h-14.48347z"/>
   <path id="path76203" d="m643.28272 659.14878h5.89416l3.46854 5.80042 3.46853-5.80042h5.85901l-6.67927 9.98375v7.19486h-5.31998v-7.19486z"/>
   <path id="path76205" d="m669.36494 659.14878h5.31998v17.17861h-5.31998z"/>
   <path id="path76207" d="m677.26186 659.14878h4.95672l6.46835 9.50331v-9.50331h5.00359v17.17861h-5.00359l-6.4332-9.433v9.433h-4.99187z"/>
   <path id="path76209" d="m700.95362 659.14878h5.89416l3.46854 5.80042 3.46853-5.80042h5.85901l-6.67927 9.98375v7.19486h-5.31998v-7.19486z"/>
   <path id="path76211" d="m717.97888 667.7498q0-4.20677 2.34361-6.55037 2.3436-2.3436 6.52693-2.3436 4.2888 0 6.60896 2.30845 2.32017 2.29673 2.32017 6.44491 0 3.01153-1.01947 4.945-1.00775 1.92176-2.9295 2.99981-1.91004 1.06634-4.76923 1.06634-2.90607 0-4.81611-0.92572-1.89832-0.92572-3.08184-2.9295-1.18352-2.00379-1.18352-5.01532zm5.30826 0.0234q0 2.6014 0.96088 3.73805 0.9726 1.13664 2.63656 1.13664 1.71083 0 2.64827-1.11321t0.93744-3.99584q0-2.42563-0.98431-3.53884-0.9726-1.12493-2.64828-1.12493-1.60536 0-2.57796 1.13665-0.9726 1.13664-0.9726 3.76148z"/>
   <path id="path76213" d="m748.5501 659.14878h5.29655v10.24155q0 1.52334-0.48044 2.88263-0.46872 1.34757-1.48819 2.36704-1.00775 1.00775-2.12096 1.41788-1.54678 0.57418-3.71461 0.57418-1.25383 0-2.74202-0.17577-1.47647-0.17577-2.4725-0.69136-0.99603-0.52731-1.82801-1.48819-0.82026-0.96088-1.12493-1.98035-0.49216-1.64052-0.49216-2.90606v-10.24155h5.29655v10.48762q0 1.40617 0.77338 2.20299 0.78511 0.78511 2.16784 0.78511 1.37101 0 2.1444-0.77339 0.7851-0.78511 0.7851-2.21471z"/>
   <path id="path76215" d="m756.16579 676.32739v-17.17861h8.8471q2.46078 0 3.76148 0.42185t2.09753 1.57021q0.79682 1.13665 0.79682 2.77717 0 1.4296-0.60933 2.4725-0.60934 1.03119-1.67568 1.67568-0.67964 0.41013-1.86316 0.67964 0.94916 0.31639 1.38272 0.63278 0.29295 0.21092 0.8437 0.90229 0.56246 0.69136 0.74995 1.06633l2.56625 4.98016h-5.99963l-2.83576-5.24967q-0.53903-1.01947-0.96087-1.32414-0.57419-0.39841-1.3007-0.39841h-0.46872v6.97222zm5.3317-10.21811h2.23814q0.36326 0 1.40616-0.23436 0.52731-0.10546 0.85541-0.53903 0.33983-0.43356 0.33983-0.99603 0-0.83198-0.52731-1.27726-0.52732-0.44529-1.98035-0.44529h-2.33188z"/>
   <path id="path76217" d="m780.20907 659.14878h8.82366q2.88264 0 4.31223 1.37101 1.44132 1.371 1.44132 3.9021 0 2.6014-1.57021 4.06615-1.5585 1.46475-4.76924 1.46475h-2.90607v6.3746h-5.33169zm5.33169 7.32376h1.3007q1.53507 0 2.15612-0.52731 0.62106-0.53903 0.62106-1.37101 0-0.80854-0.53903-1.37101-0.53903-0.56246-2.02722-0.56246h-1.51163z"/>
   <path id="path76219" d="m795.62897 667.7498q0-4.20677 2.3436-6.55037 2.34361-2.3436 6.52694-2.3436 4.28879 0 6.60896 2.30845 2.32017 2.29673 2.32017 6.44491 0 3.01153-1.01947 4.945-1.00775 1.92176-2.9295 2.99981-1.91004 1.06634-4.76924 1.06634-2.90607 0-4.8161-0.92572-1.89832-0.92572-3.08184-2.9295-1.18352-2.00379-1.18352-5.01532zm5.30826 0.0234q0 2.6014 0.96088 3.73805 0.97259 1.13664 2.63655 1.13664 1.71083 0 2.64827-1.11321 0.93745-1.11321 0.93745-3.99584 0-2.42563-0.98432-3.53884-0.97259-1.12493-2.64827-1.12493-1.60537 0-2.57796 1.13665-0.9726 1.13664-0.9726 3.76148z"/>
   <path id="path76221" d="m826.45805 669.3083 4.65205 1.40616q-0.46872 1.95691-1.47647 3.26933t-2.50766 1.98034q-1.48819 0.66793-3.79664 0.66793-2.8006 0-4.58174-0.80854-1.76942-0.82026-3.0584-2.87092-1.28898-2.05065-1.28898-5.24967 0-4.26536 2.26157-6.55037 2.2733-2.29673 6.42148-2.29673 3.24589 0 5.09733 1.31242 1.86317 1.31241 2.76546 4.03099l-4.68721 1.04291q-0.24608-0.78511-0.51559-1.14837-0.44529-0.60934-1.08978-0.93744t-1.44132-0.3281q-1.80457 0-2.76545 1.45303-0.72651 1.07806-0.72651 3.38651 0 2.85919 0.86713 3.92553 0.86713 1.05462 2.43735 1.05462 1.52334 0 2.29673-0.85541 0.78511-0.85542 1.13665-2.48422z"/>
   <path id="path76223" d="m832.4449 659.14878h5.30827v6.49178l5.56605-6.49178h7.05425l-6.25742 6.48006 6.53865 10.69855h-6.53865l-3.62087-7.06596-2.74201 2.87091v4.19505h-5.30827z"/>
   <path id="path76225" d="m851.13411 659.14878h14.22568v3.66774h-8.90569v2.7303h8.2612v3.50368h-8.2612v3.38651h9.16349v3.89038h-14.48348z"/>
   <path id="path76227" d="m866.00321 659.14878h16.13571v4.24192h-5.41373v12.93669h-5.30826v-12.93669h-5.41372z"/>
   <path id="path76229" d="m882.34883 670.64415 5.05047-0.31638q0.16405 1.23039 0.66793 1.87488 0.82026 1.0429 2.3436 1.0429 1.13665 0 1.74598-0.52731 0.62106-0.53903 0.62106-1.24211 0-0.66792-0.5859-1.19523-0.5859-0.52732-2.71858-0.99604-3.49197-0.7851-4.98016-2.0858-1.49991-1.3007-1.49991-3.3162 0-1.32414 0.76167-2.49594 0.77339-1.18352 2.30845-1.85145 1.54678-0.67964 4.23021-0.67964 3.29276 0 5.01531 1.23039 1.73427 1.21867 2.06237 3.89038l-5.00359 0.29295q-0.19921-1.16008-0.8437-1.68739-0.63277-0.52731-1.7577-0.52731-0.92573 0-1.39445 0.39841-0.46872 0.38669-0.46872 0.94916 0 0.41013 0.3867 0.73823 0.37497 0.33983 1.78114 0.63278 3.48025 0.74995 4.98015 1.52334 1.51163 0.76167 2.19127 1.89832 0.69137 1.13665 0.69137 2.54281 0 1.65224-0.91401 3.04668-0.914 1.39445-2.55453 2.12096-1.64052 0.7148-4.13646 0.7148-4.38254 0-6.06993-1.68739-1.6874-1.6874-1.91004-4.2888z"/>
  </g>
 </g>
</svg>
